<svg height="512" viewBox="0 0 64 64" width="512" xmlns="http://www.w3.org/2000/svg"><g id="book-books-gift-education-book_store" data-name="book-books-gift-education-book store"><path d="m27 12-13-9v7l-6 4 10 5h9z" fill="#ec455a"/><path d="m36 12 13-9v7l6 4-10 5h-9z" fill="#ec455a"/><path d="m55 58h6v3h-51a7 7 0 0 1 -7-7 7 7 0 0 1 7-7h51v3h-6z" fill="#cc8355"/><path d="m12 50h47a0 0 0 0 1 0 0v8a0 0 0 0 1 0 0h-47a4 4 0 0 1 -4-4 4 4 0 0 1 4-4z" fill="#e9e9ea"/><path d="m55.085 44.085h6v3h-51a7 7 0 0 1 -7-7 7 7 0 0 1 7-7h51v3h-6z" fill="#7e543b"/><path d="m12 36h47a0 0 0 0 1 0 0v8a0 0 0 0 1 0 0h-47a4 4 0 0 1 -4-4 4 4 0 0 1 4-4z" fill="#e9e9ea"/><path d="m55 30h6v3h-51a7 7 0 0 1 -7-7 7 7 0 0 1 7-7h51v3h-6z" fill="#6bc19a"/><path d="m12 22h47a0 0 0 0 1 0 0v8a0 0 0 0 1 0 0h-47a4 4 0 0 1 -4-4 4 4 0 0 1 4-4z" fill="#e9e9ea"/><path d="m37 19h-10v-9l5 1 5-1z" fill="#e28086"/><g fill="#d8d7da"><path d="m12 25h45v2h-45z"/><path d="m12 39h45v2h-45z"/><path d="m12 53h45v2h-45z"/></g><path d="m28 19h8v42h-8z" fill="#ec455a"/></g></svg>